<?xml version="1.0" encoding="UTF-8"?><svg id="D_High" xmlns="http://www.w3.org/2000/svg" viewBox="0 0 1332.46 1482.74"><polygon points="146.6 0 892.26 401.98 892.26 637.16 423.41 711.68 423.41 511.04 740.62 511.04 325.13 295.65 325.13 725.61 146.6 752.63 146.6 0"/><polygon points="146.6 843.74 325.13 815.46 325.13 1179.31 590.47 1034.35 892.26 1034.35 892.26 1061.38 146.6 1482.74 146.6 843.74"/><polygon points="423.41 799.9 644.12 764.94 644.12 838.81 1188.32 752.63 1188.32 1482.74 989.31 1357.77 989.31 971.29 423.41 971.29 423.41 799.9"/><polygon points="989.31 623.4 1188.32 591.88 1188.32 0 989.31 126.53 989.31 623.4"/><polygon points="454.82 88.18 644.12 88.18 644.12 188.83 454.82 88.18"/><polygon points="693.66 88.18 693.66 215.17 738.43 238.98 738.43 88.18 693.66 88.18"/><polygon points="790.3 266.56 823.06 283.97 823.06 155.33 931.71 88.18 790.3 88.18 790.3 266.56"/><polygon points="932.8 1357.77 790.3 1357.77 790.3 1205.96 823.06 1187.05 823.06 1296.42 932.8 1357.77"/><polygon points="527.36 1357.77 644.12 1290.36 644.12 1357.77 527.36 1357.77"/><polygon points="693.66 1261.76 738.43 1235.91 738.43 1357.77 693.66 1357.77 693.66 1261.76"/><polygon points=".25 160.99 .25 780.05 62.18 770.25 62.18 193.92 .25 160.99"/><polygon points="0 940.83 63.06 930.84 63.06 1087.98 0 1097.97 0 940.83"/><polygon points="0 1183.13 63.06 1173.14 63.06 1266.64 0 1303.05 0 1183.13"/><polygon points="1270.76 197.35 1332.46 161.73 1332.46 276.31 1270.76 286.08 1270.76 197.35"/><polygon points="1270.76 369.85 1332.46 358.9 1332.46 568.53 1270.76 578.31 1270.76 369.85"/><polygon points="1270.76 739.56 1332.46 729.79 1332.46 1298.16 1270.76 1265.35 1270.76 739.56"/></svg>