<svg id="D_High" data-name="D High" xmlns="http://www.w3.org/2000/svg" viewBox="0 0 1500 1500"><defs><style>.cls-1{fill:#fff}</style></defs><path class="cls-1" d="m240.29 8.63 745.66 401.98v235.18L517.1 720.31V519.67h317.21L418.82 304.28v429.96l-178.53 27.02V8.63zM240.29 852.37l178.53-28.28v363.85l265.34-144.96h301.79v27.03l-745.66 421.36v-639z"/><path class="cls-1" d="m517.1 808.53 220.71-34.96v73.87l544.2-86.18v730.11L1083 1366.4V979.92H517.1V808.53zM1083 632.03l199.01-31.52V8.63L1083 135.16v496.87zM548.51 96.81h189.3v100.65L548.51 96.81zM787.35 96.81V223.8l44.77 23.81V96.81h-44.77zM883.99 275.19l32.76 17.41V163.96l108.65-67.15H883.99v178.38z"/><path class="cls-1" d="M1026.49 1366.4h-142.5v-151.81l32.76-18.91v109.37l109.74 61.35zM621.05 1366.4l116.76-67.41v67.41H621.05zM787.35 1270.39l44.77-25.85v121.86h-44.77v-96.01zM93.94 169.62v619.06l61.93-9.8V202.55l-61.93-32.93zM93.69 949.46l63.06-9.99v157.14l-63.06 9.99V949.46zM93.69 1191.76l63.06-9.99v93.5l-63.06 36.41v-119.92zM1364.45 205.98l61.7-35.62v114.58l-61.7 9.77v-88.73zM1364.45 378.48l61.7-10.95v209.63l-61.7 9.78V378.48zM1364.45 748.19l61.7-9.77v568.37l-61.7-32.81V748.19z"/></svg>