<svg id="D_High" data-name="D High" xmlns="http://www.w3.org/2000/svg" viewBox="0 0 1500 1500"><defs><style>.cls-1{fill:#fff;}</style></defs><polygon class="cls-1" points="240.29 8.63 985.95 410.61 985.95 645.79 517.1 720.31 517.1 519.67 834.31 519.67 418.82 304.28 418.82 734.24 240.29 761.26 240.29 8.63"/><polygon class="cls-1" points="240.29 852.37 418.82 824.09 418.82 1187.94 684.16 1042.98 985.95 1042.98 985.95 1070.01 240.29 1491.37 240.29 852.37"/><polygon class="cls-1" points="517.1 808.53 737.81 773.57 737.81 847.44 1282.01 761.26 1282.01 1491.37 1083 1366.4 1083 979.92 517.1 979.92 517.1 808.53"/><polygon class="cls-1" points="1083 632.03 1282.01 600.51 1282.01 8.63 1083 135.16 1083 632.03"/><polygon class="cls-1" points="548.51 96.81 737.81 96.81 737.81 197.46 548.51 96.81"/><polygon class="cls-1" points="787.35 96.81 787.35 223.8 832.12 247.61 832.12 96.81 787.35 96.81"/><polygon class="cls-1" points="883.99 275.19 916.75 292.6 916.75 163.96 1025.4 96.81 883.99 96.81 883.99 275.19"/><polygon class="cls-1" points="1026.49 1366.4 883.99 1366.4 883.99 1214.59 916.75 1195.68 916.75 1305.05 1026.49 1366.4"/><polygon class="cls-1" points="621.05 1366.4 737.81 1298.99 737.81 1366.4 621.05 1366.4"/><polygon class="cls-1" points="787.35 1270.39 832.12 1244.54 832.12 1366.4 787.35 1366.4 787.35 1270.39"/><polygon class="cls-1" points="93.94 169.62 93.94 788.68 155.87 778.88 155.87 202.55 93.94 169.62"/><polygon class="cls-1" points="93.69 949.46 156.75 939.47 156.75 1096.61 93.69 1106.6 93.69 949.46"/><polygon class="cls-1" points="93.69 1191.76 156.75 1181.77 156.75 1275.27 93.69 1311.68 93.69 1191.76"/><polygon class="cls-1" points="1364.45 205.98 1426.15 170.36 1426.15 284.94 1364.45 294.71 1364.45 205.98"/><polygon class="cls-1" points="1364.45 378.48 1426.15 367.53 1426.15 577.16 1364.45 586.94 1364.45 378.48"/><polygon class="cls-1" points="1364.45 748.19 1426.15 738.42 1426.15 1306.79 1364.45 1273.98 1364.45 748.19"/></svg>